# xmcd CD database file
#
# Track frame offsets:
#	150
#	29137
#	49167
#	72450
#	101305
#	131015
#	149362
#	166935
#	187740
#	195327
#
# Disc length: 2878 seconds
#
# Revision: 0
# Processed by: cddbd v1.5PL3 Copyright (c) Steve Scherf et al.
# Submitted via: CDex 1.50
#
DISCID=8a0b3c0a
DTITLE=外間　隆史 - 雲ノ箱
DYEAR=2003
DGENRE=New Age
TTITLE0=bougoainvillea
TTITLE1=are〜箱舟〜
TTITLE2=The Cloud Box 〜雲の箱〜
TTITLE3=The Riverbank
TTITLE4=okerue〜明ける絵〜
TTITLE5=Tokyo Vegetable〜東京草〜
TTITLE6=The Seaside Drive
TTITLE7=A Timeless Bird From Mars〜火星のコトリ〜
TTITLE8=Izumo〜出雲〜
TTITLE9=PASADENA〜the sleeping trees〜
EXTD=YEAR: 2003
EXTT0=
EXTT1=
EXTT2=
EXTT3=
EXTT4=
EXTT5=
EXTT6=
EXTT7=
EXTT8=
EXTT9=
PLAYORDER=
